<svg width="100" height="71" viewBox="0 0 100 71" fill="none" xmlns="http://www.w3.org/2000/svg">
<path d="M13.8298 0C6.19182 0 0 6.07708 0 13.5735V57.4265C0 64.9229 6.19181 71 13.8298 71H58.5204C66.1584 71 72.3502 64.9229 72.3502 57.4265V50.8307L91.6742 63.8264C95.2041 66.2003 100 63.7196 100 59.5198V11.4787C100 7.2795 95.2054 4.79867 91.6753 7.17135L72.3502 20.1605V13.5735C72.3502 6.07708 66.1584 0 58.5204 0H13.8298ZM72.3502 43.2364V27.7535L93.617 13.4592V57.5386L72.3502 43.2364ZM65.9672 13.5735V57.4265C65.9672 61.463 62.6331 64.7353 58.5204 64.7353H13.8298C9.71705 64.7353 6.383 61.463 6.383 57.4265V13.5735C6.383 9.53698 9.71705 6.26471 13.8298 6.26471H58.5204C62.6331 6.26471 65.9672 9.53697 65.9672 13.5735Z" fill="white"/>
<path d="M21.2767 6.26471H27.6596V64.7353H21.2767V6.26471Z" fill="white"/>
<path d="M21.2767 39.6765V45.9412H6.38299L6.383 39.6765H21.2767Z" fill="white"/>
<path d="M65.9576 39.6765V45.9412H27.6596V39.6765H65.9576Z" fill="white"/>
</svg>
